<svg xmlns="http://www.w3.org/2000/svg" width="35" height="35" viewBox="0 0 35 35"><g style="isolation:isolate"><g transform="translate(3.721 2.889)"><path d="M9.908,27.116v-4.43a2.092,2.092,0,0,1,2.119-2.05h4.3a2.093,2.093,0,0,1,2.133,2.05h0V27.13a1.8,1.8,0,0,0,1.79,1.761h2.864a5.071,5.071,0,0,0,5.169-4.967h0v-12.6a3.491,3.491,0,0,0-1.432-2.752L17.053.99a4.846,4.846,0,0,0-5.87,0L1.432,8.584A3.464,3.464,0,0,0,0,11.336V23.924a5.071,5.071,0,0,0,5.169,4.967H8.032a1.812,1.812,0,0,0,1.847-1.775h0" fill="#fff"/></g></g></svg>