<svg xmlns="http://www.w3.org/2000/svg" width="35" height="35" viewBox="0 0 35 35"><path d="M26.046,5.451H20.9A4.251,4.251,0,0,1,17.582,3.9l-1.7-2.345A4.142,4.142,0,0,0,12.587,0H8.947C2.412,0,0,3.836,0,10.358v7.05c-.008.775,34.99.774,34.993,0v-2.05C35.024,8.836,32.674,5.451,26.046,5.451Z" transform="translate(0)" fill="#fff" opacity="0.4"/><path d="M25.14,29.577h0c-.18,0-.362,0-.541-.014H10.379c-.178.009-.358.014-.537.014a10.529,10.529,0,0,1-7.119-2.762,7.852,7.852,0,0,1-1.167-1.553A10.155,10.155,0,0,1,.187,21.441,14.259,14.259,0,0,1,0,19.127V9.935a21.252,21.252,0,0,1,.124-2.3c.018-.132.044-.264.069-.392A3.315,3.315,0,0,0,.28,6.6a9.833,9.833,0,0,1,.855-2.655C2.368,1.307,4.913.027,8.916.027H26.03c.233-.018.47-.027.7-.027a9.171,9.171,0,0,1,5.645,1.953,4.864,4.864,0,0,1,.576.575,6.886,6.886,0,0,1,1.276,2.221,14.893,14.893,0,0,1,.762,5.186v9.192a16.523,16.523,0,0,1-.172,2.314,10.433,10.433,0,0,1-1.4,3.821,7.779,7.779,0,0,1-1.183,1.553A10.47,10.47,0,0,1,25.14,29.577ZM8.7,15.385a1.444,1.444,0,1,0,0,2.889H26.342c.022,0,.043,0,.065,0a1.445,1.445,0,0,0,1.444-1.4,1.3,1.3,0,0,0-.31-.932,1.379,1.379,0,0,0-1.09-.559Z" transform="translate(0 5.423)" fill="#fff"/></svg>