<svg xmlns="http://www.w3.org/2000/svg" width="36" height="36" viewBox="0 0 36 36"><g transform="translate(0.5 0.5)" style="isolation:isolate"><g style="isolation:isolate"><path d="M25.682,0H9.333C3.376,0,0,3.376,0,9.333V25.667C0,31.624,3.376,35,9.333,35H25.682C31.64,35,35,31.624,35,25.667V9.333C35,3.376,31.64,0,25.682,0" transform="translate(0 0)" fill="#fff" stroke="#fff" stroke-width="1" opacity="0.4"/><path d="M1.447,0A1.457,1.457,0,0,0,0,1.462V13.487a1.454,1.454,0,0,0,2.909,0V1.462A1.461,1.461,0,0,0,1.447,0" transform="translate(7.949 12.896)" fill="#fff" stroke="#fff" stroke-width="1"/><path d="M1.447,0A1.457,1.457,0,0,0,0,1.462V19.227a1.454,1.454,0,0,0,2.909,0V1.462A1.461,1.461,0,0,0,1.447,0" transform="translate(16.115 7.156)" fill="#fff" stroke="#fff" stroke-width="1"/><path d="M1.462,0A1.461,1.461,0,0,0,0,1.462V7.14a1.454,1.454,0,0,0,2.909,0V1.462A1.457,1.457,0,0,0,1.462,0" transform="translate(24.158 19.242)" fill="#fff" stroke="#fff" stroke-width="1"/></g></g></svg>